<?xml version="1.0" standalone="no"?>
<!DOCTYPE svg PUBLIC "-//W3C//DTD SVG 20010904//EN"
 "http://www.w3.org/TR/2001/REC-SVG-20010904/DTD/svg10.dtd">
<svg version="1.0" xmlns="http://www.w3.org/2000/svg"
 width="211.000000pt" height="209.000000pt" viewBox="0 0 211.000000 209.000000"
 preserveAspectRatio="xMidYMid meet">

<g transform="translate(0.000000,209.000000) scale(0.100000,-0.100000)"
fill="#000000" stroke="none">
<path d="M912 2066 c-152 -37 -302 -154 -374 -291 -53 -102 -71 -174 -72 -285
0 -168 51 -287 179 -415 120 -120 247 -175 405 -175 161 0 294 55 406 165 122
121 184 264 184 427 0 173 -48 287 -175 413 -86 86 -163 132 -270 160 -71 18
-209 18 -283 1z m263 -68 c65 -14 167 -67 229 -120 44 -38 126 -148 126 -169
0 -5 -16 3 -36 16 -56 38 -106 48 -169 35 -79 -16 -135 -60 -254 -194 -58 -67
-134 -150 -169 -186 l-62 -65 -20 24 c-33 39 -53 126 -48 203 8 103 16 105
103 18 73 -73 75 -73 95 -55 11 10 20 23 20 29 0 6 -35 46 -77 88 -112 112
-66 100 53 -14 l50 -48 25 26 24 26 -55 50 c-30 27 -72 61 -93 76 -37 24 -38
27 -20 40 78 60 178 68 269 22 67 -34 64 -33 100 -20 l27 11 -22 23 c-33 35
-122 75 -185 82 -40 5 -75 2 -122 -11 -203 -55 -317 -332 -224 -543 11 -25 20
-46 20 -48 0 -8 -59 -4 -82 5 -58 22 -118 124 -118 200 0 74 58 165 120 191
26 11 60 53 60 76 0 15 -84 -6 -121 -30 -21 -15 -39 -23 -39 -20 0 20 68 110
116 153 139 128 292 169 479 129z m259 -318 c64 -31 100 -91 104 -171 3 -52 0
-74 -16 -106 -24 -46 -74 -93 -120 -112 -17 -7 -40 -28 -51 -47 -19 -32 -19
-34 -2 -34 38 0 116 30 152 60 48 38 49 28 7 -36 -64 -95 -161 -144 -282 -144
-47 0 -70 -6 -100 -24 l-40 -24 59 -12 c32 -7 77 -10 99 -7 38 5 39 4 21 -9
-79 -58 -314 -59 -420 -1 l-30 16 60 1 c110 1 224 43 330 122 155 115 226 299
182 468 -11 39 -15 45 -37 42 -37 -4 -44 -16 -29 -59 7 -21 12 -65 12 -98 0
-58 -18 -135 -31 -135 -4 0 -37 30 -74 67 l-68 68 -26 -26 -26 -26 76 -69 c42
-38 76 -72 76 -76 0 -20 -29 -3 -98 59 l-75 67 -19 -24 -19 -23 43 -45 c24
-24 60 -57 80 -72 35 -25 36 -28 20 -42 -42 -36 -112 -77 -177 -103 -90 -36
-205 -39 -276 -8 -54 24 -114 75 -135 114 -20 40 -19 41 28 14 30 -17 58 -25
94 -25 104 0 163 37 296 188 171 195 221 244 273 268 61 29 87 30 139 4z"/>
<path d="M863 1218 c-31 -15 -29 -21 11 -52 35 -26 73 -32 111 -17 17 7 13 12
-30 44 -54 40 -59 41 -92 25z"/>
<path d="M1225 359 c-40 -23 -65 -53 -71 -86 -4 -19 -15 -38 -27 -45 l-21 -11
22 -8 c20 -8 22 -15 22 -83 0 -64 -3 -78 -22 -96 l-22 -20 79 0 78 0 -27 25
c-25 23 -27 30 -24 97 3 69 4 73 28 76 33 5 51 22 23 22 -41 0 -53 11 -53 49
0 52 16 65 52 44 22 -14 30 -15 40 -5 33 33 38 15 38 -130 0 -118 -3 -145 -17
-160 -15 -17 -13 -18 58 -17 70 0 73 1 52 16 -22 15 -23 21 -23 179 l0 164
-23 -5 c-31 -8 -87 -8 -117 -1 -14 3 -34 1 -45 -5z"/>
<path d="M127 335 c-45 -16 -83 -48 -104 -89 -21 -40 -14 -133 12 -168 43 -57
126 -85 219 -74 52 7 55 9 70 47 9 22 16 42 16 44 0 14 -22 1 -53 -30 -83 -83
-197 -16 -197 117 0 133 128 193 204 95 30 -38 40 -32 30 18 -5 26 -13 39 -31
46 -35 13 -122 10 -166 -6z"/>
<path d="M434 224 c-92 -45 -82 -186 16 -215 51 -16 110 0 139 38 23 29 28 96
10 136 -24 52 -103 72 -165 41z m81 -24 c12 -14 20 -41 23 -79 4 -51 1 -62
-18 -81 l-22 -22 -20 20 c-46 46 -37 181 13 182 3 0 14 -9 24 -20z"/>
<path d="M696 231 c-28 -6 -50 -31 -27 -31 19 0 14 -150 -6 -172 -15 -17 -13
-18 55 -18 69 0 95 12 52 23 -17 4 -20 14 -20 65 0 67 11 82 56 79 26 -2 29 1
29 28 0 23 -5 31 -21 33 -11 2 -27 -4 -34 -13 -16 -19 -30 -19 -30 0 0 16 -7
17 -54 6z"/>
<path d="M934 221 c-87 -53 -78 -184 15 -212 32 -9 44 -8 74 6 32 15 54 41 44
52 -3 2 -16 -2 -31 -8 -20 -9 -32 -9 -51 -1 -24 11 -54 57 -44 67 3 2 34 8 69
12 61 8 65 10 62 33 -3 33 -46 70 -80 70 -15 0 -41 -9 -58 -19z m64 -13 c7 -7
12 -20 12 -30 0 -14 -8 -18 -35 -18 -39 0 -42 6 -19 38 17 25 25 27 42 10z"/>
<path d="M1543 226 c-60 -27 -84 -127 -42 -179 47 -61 161 -58 199 6 49 80 7
175 -80 183 -27 3 -58 -2 -77 -10z m81 -28 c33 -53 30 -150 -5 -169 -47 -25
-87 90 -55 157 18 39 40 43 60 12z"/>
<path d="M1753 216 c10 -8 31 -54 48 -102 46 -140 49 -141 89 -41 12 31 26 57
29 57 4 0 19 -28 33 -62 14 -35 31 -63 38 -63 7 0 28 44 49 97 20 54 45 104
56 112 19 14 16 15 -35 15 -50 0 -53 -1 -36 -14 17 -13 18 -18 6 -60 -7 -25
-16 -45 -20 -45 -5 0 -19 27 -32 60 -28 74 -44 74 -74 0 -12 -30 -25 -55 -29
-55 -4 0 -13 19 -20 42 -11 35 -10 44 3 57 15 15 10 16 -53 16 -61 -1 -68 -2
-52 -14z"/>
</g>
</svg>
