<?xml version="1.0" standalone="no"?>
<!DOCTYPE svg PUBLIC "-//W3C//DTD SVG 20010904//EN"
 "http://www.w3.org/TR/2001/REC-SVG-20010904/DTD/svg10.dtd">
<svg version="1.0" xmlns="http://www.w3.org/2000/svg"
 width="223.000000pt" height="225.000000pt" viewBox="0 0 223.000000 225.000000"
 preserveAspectRatio="xMidYMid meet">

<g transform="translate(0.000000,225.000000) scale(0.100000,-0.100000)"
fill="#000000" stroke="none">
<path d="M1102 2238 c-7 -7 -12 -19 -12 -28 0 -9 -60 -72 -133 -141 l-134
-124 45 -53 45 -53 -46 -47 c-44 -44 -49 -46 -76 -35 -24 8 -34 8 -50 -4 -23
-16 -28 -52 -9 -71 17 -17 58 -15 77 3 9 8 87 79 173 157 l157 143 -71 3 c-57
2 -77 -1 -96 -15 -13 -10 -23 -22 -21 -28 4 -11 10 -10 47 1 34 10 27 -11 -14
-42 l-35 -27 -34 34 -33 34 109 100 c60 55 113 101 117 102 4 1 20 4 35 7 37
9 54 51 31 77 -19 22 -54 25 -72 7z"/>
<path d="M1286 2110 c-141 -14 -184 -22 -204 -37 -46 -34 -37 -40 51 -35 45 2
91 3 101 1 14 -3 -29 -48 -168 -178 -103 -95 -185 -178 -183 -184 2 -6 8 -12
13 -14 6 -2 104 82 219 187 174 158 215 190 239 190 26 0 28 -2 16 -13 -111
-103 -307 -281 -431 -394 -155 -140 -156 -141 -196 -136 -34 4 -43 2 -57 -18
-21 -31 -20 -45 4 -69 31 -31 54 -24 107 31 56 59 620 572 634 577 5 2 9 -6 9
-18 0 -23 -49 -71 -255 -255 -287 -255 -493 -451 -484 -460 6 -6 28 10 62 42
28 29 63 55 77 58 14 4 149 120 300 260 151 139 277 251 279 249 4 -3 -17
-157 -26 -189 -4 -15 5 -10 35 18 l39 39 27 166 c14 92 26 175 26 185 0 20 4
21 -234 -3z m-543 -655 c8 -18 -11 -31 -25 -17 -11 11 -3 32 12 32 4 0 10 -7
13 -15z"/>
<path d="M1103 1545 c-176 -162 -217 -195 -242 -195 -35 0 -61 -23 -61 -54 0
-28 29 -56 57 -56 23 0 53 29 53 53 0 9 89 98 198 198 108 100 206 190 217
200 17 17 18 21 5 34 -13 13 -40 -8 -227 -180z m-233 -250 c0 -8 -7 -15 -15
-15 -8 0 -15 7 -15 15 0 8 7 15 15 15 8 0 15 -7 15 -15z"/>
<path d="M1326 1608 c-21 -47 -93 -115 -107 -101 -9 9 -34 -8 -100 -69 -85
-78 -88 -82 -72 -100 16 -18 19 -17 72 35 91 87 87 85 126 47 29 -28 37 -31
50 -20 14 12 13 16 -10 40 l-25 26 38 37 c21 20 47 37 59 37 11 0 31 9 44 19
23 19 23 21 9 48 -10 18 -25 29 -43 31 -23 3 -30 -2 -41 -30z"/>
<path d="M1135 1320 c-33 -33 -64 -60 -69 -60 -6 0 -24 14 -42 31 -31 30 -54
32 -54 5 0 -6 20 -31 44 -55 l45 -44 58 52 58 52 46 -51 c53 -56 71 -61 95
-25 14 21 15 31 6 50 -10 21 -19 25 -52 25 -43 0 -61 19 -41 43 8 10 7 17 -1
25 -20 20 -32 14 -93 -48z"/>
<path d="M945 1094 c-22 -2 -73 -7 -114 -10 -136 -11 -51 -26 178 -32 312 -7
550 11 409 31 -54 8 -420 16 -473 11z"/>
<path d="M222 669 c-58 -29 -126 -108 -168 -196 -30 -62 -37 -90 -42 -158 -4
-72 -2 -89 18 -130 25 -52 63 -75 123 -75 41 0 130 43 156 76 24 30 27 30 35
-1 7 -29 46 -42 85 -29 14 5 42 31 61 56 22 31 38 44 44 38 6 -6 27 -10 47
-10 31 0 43 6 68 38 18 20 37 52 43 70 14 36 20 39 43 15 18 -18 17 -34 -10
-104 -11 -27 -15 -56 -12 -71 12 -47 82 -44 136 5 19 18 25 19 29 8 11 -31 51
-61 82 -61 38 0 98 24 127 52 27 25 27 23 8 -57 -8 -33 -15 -77 -15 -98 l0
-38 47 3 48 3 24 60 c13 33 26 88 29 123 l5 62 41 0 c22 0 51 3 64 6 20 6 22
3 22 -34 0 -45 20 -72 53 -72 26 0 87 35 87 50 0 5 5 10 10 10 6 0 10 -8 10
-18 0 -58 89 -54 144 7 11 12 31 21 47 21 15 0 39 4 53 10 24 9 26 7 26 -19 0
-15 9 -36 20 -46 29 -26 65 -12 103 41 32 46 32 46 35 18 5 -52 12 -72 28 -78
23 -9 70 19 100 61 43 59 43 59 60 35 22 -32 94 -28 94 6 0 12 -3 13 -12 4
-20 -20 -48 -14 -58 13 -6 17 -5 40 6 75 16 55 13 70 -16 70 -20 0 -30 -19
-30 -58 0 -50 -83 -172 -117 -172 -14 0 -15 10 -10 68 4 38 10 83 13 100 6 28
4 32 -15 32 -14 0 -21 -6 -21 -18 0 -27 -48 -117 -81 -153 -24 -26 -32 -29
-44 -19 -21 18 -18 66 9 132 19 47 21 58 9 62 -8 4 -17 6 -19 6 -3 0 -18 -29
-34 -64 -29 -65 -51 -86 -89 -86 -26 0 -26 1 -1 47 27 50 27 119 0 133 -32 17
-70 1 -86 -36 -10 -24 -21 -33 -41 -36 -23 -2 -34 -14 -58 -60 -55 -103 -105
-136 -125 -83 -15 38 -1 86 35 125 47 50 111 153 135 216 42 113 16 183 -42
113 -36 -43 -119 -204 -148 -289 -26 -76 -50 -100 -95 -100 -36 0 -54 16 -71
66 -12 34 -11 35 57 104 82 83 129 160 129 213 0 33 -3 37 -25 37 -54 0 -133
-114 -211 -308 -50 -125 -104 -196 -162 -211 -47 -14 -82 7 -82 47 0 24 5 29
43 39 50 14 122 73 131 108 15 58 -39 84 -103 51 -38 -20 -89 -80 -111 -130
-18 -43 -80 -106 -105 -106 -25 0 -27 20 -6 80 24 68 19 90 -27 133 -21 20
-28 35 -24 52 2 14 0 25 -5 25 -18 0 -33 -24 -33 -52 0 -68 -65 -161 -109
-156 -23 3 -26 7 -25 38 1 19 5 51 9 70 6 32 4 36 -23 48 -18 7 -42 10 -58 6
-38 -10 -98 -73 -133 -141 -56 -110 -161 -171 -232 -133 -98 53 -42 327 96
465 48 48 90 64 113 42 18 -19 4 -68 -38 -125 -23 -32 -26 -43 -16 -51 32 -27
96 74 96 149 0 59 -70 77 -148 39z m1158 -39 c0 -32 -114 -190 -127 -176 -7 7
53 120 82 155 27 31 45 40 45 21z m172 -93 c-32 -70 -111 -192 -119 -184 -8 9
66 169 104 227 47 70 55 47 15 -43z m-482 -151 c0 -26 -74 -100 -110 -109 -27
-7 -25 1 9 55 46 72 101 102 101 54z m647 -2 c6 -16 -10 -78 -27 -104 -9 -13
-11 -13 -20 0 -13 20 -13 76 0 101 13 23 38 25 47 3z m-1207 -54 c-6 -62 -25
-98 -72 -133 -72 -54 -63 71 12 156 18 20 40 37 49 37 14 0 16 -8 11 -60z
m1136 -64 c13 -26 13 -31 -3 -48 -64 -71 -97 -26 -58 77 5 11 13 26 19 34 8
10 12 8 19 -10 5 -13 15 -37 23 -53z m-440 -2 c10 -39 -4 -130 -29 -192 -50
-125 -64 -43 -21 120 15 54 31 98 35 98 5 0 12 -12 15 -26z"/>
</g>
</svg>
